<svg xmlns="http://www.w3.org/2000/svg" viewBox="0 0 64 64" role="img" aria-label="TC icon">
  <defs>
    <linearGradient id="bg" x1="16" y1="4" x2="52" y2="60" gradientUnits="userSpaceOnUse">
      <stop offset="0%" stop-color="#1d4ed8" />
      <stop offset="100%" stop-color="#0b2c74" />
    </linearGradient>
  </defs>
  <rect x="4" y="4" width="56" height="56" rx="14" fill="url(#bg)" />
  <path fill="#f8fafc" d="M18 21.5c0-1.3 1-2.3 2.3-2.3h11.6c1 0 1.9.8 1.9 1.9s-.8 1.9-1.9 1.9h-9.6v7.3h7.8c1 0 1.9.8 1.9 1.9s-.8 1.9-1.9 1.9h-7.8v7.8h9.9c1 0 1.9.8 1.9 1.9s-.8 1.9-1.9 1.9H20.3c-1.3 0-2.3-1-2.3-2.3V21.5Zm19.7 0c0-1.3 1-2.3 2.3-2.3h6.8c4.9 0 8.2 3.3 8.2 7.9 0 3.4-1.8 6-4.8 7.1l4.2 7.5c.8 1.4.2 3.1-1.3 3.8-.4.2-.8.3-1.2.3-1 0-2-.5-2.5-1.5l-5-9h-2.2v7.5c0 1.3-1 2.3-2.3 2.3s-2.3-1-2.3-2.3V21.5Zm4.5 2.1V30h4.5c1.8 0 3.2-1.3 3.2-3 0-1.9-1.3-3.4-3.7-3.4h-4z" />
</svg>
